<svg xmlns="http://www.w3.org/2000/svg" width="256" height="256" viewBox="0 0 100 100"><rect width="100" height="100" rx="50" fill="#65b5c7"></rect><path fill="#fff" d="M49.91 44.85L49.91 44.85Q49.91 41.82 48.17 40.39Q46.44 38.96 43.52 38.96L43.52 38.96Q39.49 38.96 36.33 41.82L36.33 41.82Q36.70 43.06 36.70 44.48L36.70 44.48L36.70 64.20Q36.39 64.32 35.74 64.48Q35.09 64.63 34.41 64.63L34.41 64.63Q31.74 64.63 31.74 62.40L31.74 62.40L31.74 44.85Q31.74 41.82 30.01 40.39Q28.27 38.96 25.29 38.96L25.29 38.96Q23.31 38.96 21.54 39.58Q19.78 40.20 18.54 41.01L18.54 41.01L18.54 64.20Q18.23 64.32 17.61 64.48Q16.99 64.63 16.24 64.63L16.24 64.63Q13.58 64.63 13.58 62.40L13.58 62.40L13.58 41.26Q13.58 40.02 14.10 39.18Q14.63 38.34 15.93 37.48L15.93 37.48Q17.61 36.42 20.18 35.65Q22.75 34.87 25.36 34.87L25.36 34.87Q28.39 34.87 30.75 35.77Q33.11 36.67 34.34 38.22L34.34 38.22Q35.96 36.79 38.38 35.83Q40.79 34.87 43.89 34.87L43.89 34.87Q48.92 34.87 51.89 37.26Q54.87 39.65 54.87 44.61L54.87 44.61L54.87 64.20Q54.56 64.32 53.91 64.48Q53.26 64.63 52.57 64.63L52.57 64.63Q49.91 64.63 49.91 62.40L49.91 62.40L49.91 44.85ZM77.44 39.03L77.44 39.03Q75.33 39.03 73.53 39.74Q71.73 40.45 70.43 41.85Q69.13 43.24 68.38 45.32Q67.64 47.40 67.64 50.06L67.64 50.06Q67.64 55.39 70.31 58.22Q72.97 61.04 77.44 61.04L77.44 61.04Q80.04 61.04 81.78 60.32Q83.51 59.61 84.88 58.68L84.88 58.68Q85.56 59.05 85.99 59.61Q86.43 60.17 86.43 60.97L86.43 60.97Q86.43 61.84 85.74 62.59Q85.06 63.33 83.85 63.89Q82.64 64.45 81 64.79Q79.36 65.13 77.44 65.13L77.44 65.13Q74.21 65.13 71.48 64.20Q68.75 63.27 66.77 61.41Q64.79 59.55 63.67 56.73Q62.55 53.91 62.55 50.06L62.55 50.06Q62.55 46.28 63.73 43.46Q64.91 40.64 66.90 38.72Q68.88 36.79 71.58 35.83Q74.27 34.87 77.31 34.87L77.31 34.87Q79.23 34.87 80.88 35.21Q82.52 35.55 83.70 36.17Q84.88 36.79 85.53 37.57Q86.18 38.34 86.18 39.15L86.18 39.15Q86.18 39.89 85.74 40.45Q85.31 41.01 84.63 41.32L84.63 41.32Q83.26 40.39 81.65 39.71Q80.04 39.03 77.44 39.03Z"></path></svg>